<svg viewBox="0 0 600 600" class="portfolio-donut" xmlns="http://www.w3.org/2000/svg">
  <defs>
    <pattern id="img-0" patternUnits="userSpaceOnUse" width="600" height="600">
      <image href="images/mic1.jpg" x="0" y="0" width="600" height="600" preserveAspectRatio="xMidYMid slice"/>
      <rect x="0" y="0" width="600" height="600" fill="#0B0A09" fill-opacity="0.6"/>
    </pattern>
    <pattern id="img-1" patternUnits="userSpaceOnUse" width="600" height="600">
      <image href="images/team.jpg" x="0" y="0" width="600" height="600" preserveAspectRatio="xMidYMid slice"/>
      <rect x="0" y="0" width="600" height="600" fill="#0B0A09" fill-opacity="0.6"/>
    </pattern>
    <pattern id="img-2" patternUnits="userSpaceOnUse" width="600" height="600">
      <image href="images/virtusa-training-1.jpg" x="0" y="0" width="600" height="600" preserveAspectRatio="xMidYMid slice"/>
      <rect x="0" y="0" width="600" height="600" fill="#0B0A09" fill-opacity="0.6"/>
    </pattern>
    <pattern id="img-3" patternUnits="userSpaceOnUse" width="600" height="600">
      <image href="images/solo-branding-1.jpg" x="0" y="0" width="600" height="600" preserveAspectRatio="xMidYMid slice"/>
      <rect x="0" y="0" width="600" height="600" fill="#0B0A09" fill-opacity="0.6"/>
    </pattern>
    <pattern id="img-4" patternUnits="userSpaceOnUse" width="600" height="600">
      <image href="images/iit-business-1.jpg" x="0" y="0" width="600" height="600" preserveAspectRatio="xMidYMid slice"/>
      <rect x="0" y="0" width="600" height="600" fill="#0B0A09" fill-opacity="0.6"/>
    </pattern>
  </defs>
  <g class="donut-segment" data-index="0" onclick="window.location.href='#communication'" style="--tx: 7.05px; --ty: -9.71px;">
    <path d="M 304.36 50.04 A 250 250 0 0 1 536.38 218.61 L 394.55 267.44 A 100 100 0 0 0 301.75 200.02 Z" class="donut-path" fill="url(#img-0)" />
    <text x="402.8624191511828" y="152.4220259843842" class="donut-text" text-anchor="middle">
      <tspan x="402.8624191511828" dy="0">Communication</tspan>
      <tspan x="402.8624191511828" dy="22">Portfolio</tspan>
    </text>
  </g>
  <g class="donut-segment" data-index="1" onclick="window.location.href='#leadership'" style="--tx: 11.41px; --ty: 3.71px;">
    <path d="M 539.08 226.91 A 250 250 0 0 1 450.45 499.66 L 360.18 379.86 A 100 100 0 0 0 395.63 270.76 Z" class="donut-path" fill="url(#img-1)" />
    <text x="466.43489035165186" y="348.0779740156158" class="donut-text" text-anchor="middle">
      <tspan x="466.43489035165186" dy="0">Leadership</tspan>
      <tspan x="466.43489035165186" dy="22">Portfolio</tspan>
    </text>
  </g>
  <g class="donut-segment" data-index="2" onclick="window.location.href='#hr'" style="--tx: 0.00px; --ty: 12.00px;">
    <path d="M 443.39 504.79 A 250 250 0 0 1 156.61 504.79 L 242.64 381.92 A 100 100 0 0 0 357.36 381.92 Z" class="donut-path" fill="url(#img-2)" />
    <text x="300.0" y="469.0" class="donut-text" text-anchor="middle">
      <tspan x="300.0" dy="0">HR</tspan>
      <tspan x="300.0" dy="22">Portfolio</tspan>
    </text>
  </g>
  <g class="donut-segment" data-index="3" onclick="window.location.href='#creative'" style="--tx: -11.41px; --ty: 3.71px;">
    <path d="M 149.55 499.66 A 250 250 0 0 1 60.92 226.91 L 204.37 270.76 A 100 100 0 0 0 239.82 379.86 Z" class="donut-path" fill="url(#img-3)" />
    <text x="133.56510964834814" y="348.07797401561584" class="donut-text" text-anchor="middle">
      <tspan x="133.56510964834814" dy="0">Creative</tspan>
      <tspan x="133.56510964834814" dy="22">Portfolio</tspan>
    </text>
  </g>
  <g class="donut-segment" data-index="4" onclick="window.location.href='#it'" style="--tx: -7.05px; --ty: -9.71px;">
    <path d="M 63.62 218.61 A 250 250 0 0 1 295.64 50.04 L 298.25 200.02 A 100 100 0 0 0 205.45 267.44 Z" class="donut-path" fill="url(#img-4)" />
    <text x="197.13758084881718" y="152.42202598438422" class="donut-text" text-anchor="middle">
      <tspan x="197.13758084881718" dy="0">IT Projects</tspan>
      <tspan x="197.13758084881718" dy="22">Portfolio</tspan>
    </text>
  </g>
</svg>
